<?xml version="1.0" encoding="UTF-8"?>
<svg width="116px" height="19px" viewBox="0 0 116 19" version="1.1" xmlns="http://www.w3.org/2000/svg" xmlns:xlink="http://www.w3.org/1999/xlink">
    <!-- Generator: Sketch 43.2 (39069) - http://www.bohemiancoding.com/sketch -->
    <title>5-stars</title>
    <desc>Created with Sketch.</desc>
    <defs></defs>
    <g id="Mirror" stroke="none" stroke-width="1" fill="none" fill-rule="evenodd">
        <g id="Stars" transform="translate(-434.000000, -277.000000)" fill="#FFAA1D">
            <g id="5-stars" transform="translate(434.000000, 277.000000)">
                <polygon id="Star" points="10 15 4.12214748 18.0901699 5.24471742 11.545085 0.489434837 6.90983006 7.06107374 5.95491503 10 0 12.9389263 5.95491503 19.5105652 6.90983006 14.7552826 11.545085 15.8778525 18.0901699"></polygon>
                <polygon id="Star-Copy" points="34 15 28.1221475 18.0901699 29.2447174 11.545085 24.4894348 6.90983006 31.0610737 5.95491503 34 0 36.9389263 5.95491503 43.5105652 6.90983006 38.7552826 11.545085 39.8778525 18.0901699"></polygon>
                <polygon id="Star-Copy-2" points="58 15 52.1221475 18.0901699 53.2447174 11.545085 48.4894348 6.90983006 55.0610737 5.95491503 58 0 60.9389263 5.95491503 67.5105652 6.90983006 62.7552826 11.545085 63.8778525 18.0901699"></polygon>
                <polygon id="Star-Copy-3" points="81 15 75.1221475 18.0901699 76.2447174 11.545085 71.4894348 6.90983006 78.0610737 5.95491503 81 0 83.9389263 5.95491503 90.5105652 6.90983006 85.7552826 11.545085 86.8778525 18.0901699"></polygon>
                <polygon id="Star-Copy-4" points="106 15 100.122147 18.0901699 101.244717 11.545085 96.4894348 6.90983006 103.061074 5.95491503 106 0 108.938926 5.95491503 115.510565 6.90983006 110.755283 11.545085 111.877853 18.0901699"></polygon>
            </g>
        </g>
    </g>
</svg>